<svg xmlns="http://www.w3.org/2000/svg" width="40" height="40" viewBox="0 0 40 40"><path id="Контур_165" data-name="Контур 165" d="M39.336-33.555h-30v-1.328a2.226,2.226,0,0,0-1.328-1.934,6.68,6.68,0,0,0-3.359-.762,6.593,6.593,0,0,0-3.32.762A2.226,2.226,0,0,0,0-34.883V-.234A2.2,2.2,0,0,0,1.328,1.66a6.593,6.593,0,0,0,3.32.762A6.68,6.68,0,0,0,8.008,1.66,2.2,2.2,0,0,0,9.336-.234h30a.639.639,0,0,0,.469-.2A.639.639,0,0,0,40-.9V-32.891a.639.639,0,0,0-.2-.469A.639.639,0,0,0,39.336-33.555ZM4.648-36.211a5.575,5.575,0,0,1,2.461.449q.9.449.9.879,0,.391-.9.859a5.373,5.373,0,0,1-2.461.469,5.27,5.27,0,0,1-2.422-.469q-.9-.469-.9-.859,0-.43.9-.879A5.467,5.467,0,0,1,4.648-36.211ZM8.008-.234q0,.43-.9.879a5.575,5.575,0,0,1-2.461.449A5.467,5.467,0,0,1,2.227.645q-.9-.449-.9-.879V-33.008a1.708,1.708,0,0,0,.332.2,1.761,1.761,0,0,0,.371.117v.039q.2.039.391.1t.391.137q.234.039.449.078t.449.078q.234,0,.469.02t.469.02q.273,0,.508-.02t.469-.02q.234-.039.449-.078t.449-.078q.2-.039.391-.1t.391-.137q.2-.078.371-.156t.332-.156ZM38.672-1.562H9.336V-32.227H38.672ZM12.656-4.219h22.7a.639.639,0,0,0,.469-.2.639.639,0,0,0,.2-.469V-28.906a.639.639,0,0,0-.2-.469.639.639,0,0,0-.469-.2h-22.7a.639.639,0,0,0-.469.2.639.639,0,0,0-.2.469V-4.883a.639.639,0,0,0,.2.469A.639.639,0,0,0,12.656-4.219Zm6.68-24.023v6.016a.639.639,0,0,0,.2.469.639.639,0,0,0,.469.2.639.639,0,0,0,.469-.2.639.639,0,0,0,.2-.469v-1.328H30a.639.639,0,0,0,.469-.2.639.639,0,0,0,.2-.469.639.639,0,0,0-.2-.469.639.639,0,0,0-.469-.2H20.664v-3.359H34.648v14.023H23.32a.639.639,0,0,0-.469.2.639.639,0,0,0-.2.469v5.313a.639.639,0,0,0,.2.469.639.639,0,0,0,.469.2.639.639,0,0,0,.469-.2.639.639,0,0,0,.2-.469v-4.648H34.648v7.344H18.008v-4.687a.639.639,0,0,0-.2-.469.639.639,0,0,0-.469-.2.639.639,0,0,0-.469.2.639.639,0,0,0-.2.469v4.688H13.32V-16.914h7.344a.639.639,0,0,0,.469-.2.639.639,0,0,0,.2-.469.639.639,0,0,0-.2-.469.639.639,0,0,0-.469-.2H13.32v-10ZM6.68-30.9a.639.639,0,0,0-.469.2.639.639,0,0,0-.2.469V-1.562a.639.639,0,0,0,.2.469.639.639,0,0,0,.469.2.639.639,0,0,0,.469-.2.639.639,0,0,0,.2-.469V-30.234a.639.639,0,0,0-.2-.469A.639.639,0,0,0,6.68-30.9Z" transform="translate(0 37.578)" fill="#14213d"></path></svg>