<svg xmlns="http://www.w3.org/2000/svg" width="33.32" height="40" viewBox="0 0 33.32 40"><path id="Контур_170" data-name="Контур 170" d="M11.641-26.836h.391a7.616,7.616,0,0,0,.859,3.047,8.047,8.047,0,0,0,1.914,2.4,8.12,8.12,0,0,0,2.656,1.5,7.614,7.614,0,0,0,3.164.352,7.73,7.73,0,0,0,5-2.3,7.73,7.73,0,0,0,2.3-5h.391a1.576,1.576,0,0,0,1.152-.488,1.621,1.621,0,0,0,.488-1.191,1.576,1.576,0,0,0-.488-1.152,1.576,1.576,0,0,0-1.152-.488h-.781a8.258,8.258,0,0,0-2.168-3.223,7.92,7.92,0,0,0-3.379-1.855v-.273a1.918,1.918,0,0,0-.586-1.406,1.964,1.964,0,0,0-1.445-.586,1.918,1.918,0,0,0-1.406.586,1.918,1.918,0,0,0-.586,1.406v.273a7.92,7.92,0,0,0-3.379,1.855,8.258,8.258,0,0,0-2.168,3.223h-.781a1.621,1.621,0,0,0-1.191.488,1.576,1.576,0,0,0-.488,1.152,1.621,1.621,0,0,0,.488,1.191A1.621,1.621,0,0,0,11.641-26.836Zm8.32,6.016a6.418,6.418,0,0,1-4.453-1.738,6.39,6.39,0,0,1-2.148-4.277H26.6a6.39,6.39,0,0,1-2.148,4.277A6.467,6.467,0,0,1,19.961-20.82ZM19.3-35.508a.639.639,0,0,1,.2-.469.639.639,0,0,1,.469-.2.6.6,0,0,1,.273.059,2.184,2.184,0,0,1,.234.137,2.184,2.184,0,0,1,.137.234.52.52,0,0,1,.059.234v3.359H19.3Zm-1.328,1.641v2.383a.639.639,0,0,0,.2.469.639.639,0,0,0,.469.2h2.7a.639.639,0,0,0,.469-.2.639.639,0,0,0,.2-.469v-2.383a6.478,6.478,0,0,1,2.441,1.406,6.78,6.78,0,0,1,1.66,2.3H13.867a6.78,6.78,0,0,1,1.66-2.3A6.478,6.478,0,0,1,17.969-33.867Zm-6.328,5.039H28.32a.3.3,0,0,1,.215.1.3.3,0,0,1,.1.215.343.343,0,0,1-.1.254.3.3,0,0,1-.215.1H11.641a.3.3,0,0,1-.215-.1.343.343,0,0,1-.1-.254.3.3,0,0,1,.1-.215A.3.3,0,0,1,11.641-28.828ZM31.758-13.945q-.156-.156-.332-.312t-.332-.312a16.031,16.031,0,0,0-5.273-3.2,16.71,16.71,0,0,0-5.84-1.055A17.032,17.032,0,0,0,14.1-17.773a16.134,16.134,0,0,0-5.234,3.2,15.657,15.657,0,0,0-2.344,2.578A16.487,16.487,0,0,0,4.766-8.965a17.842,17.842,0,0,0-1.094,3.3A17.5,17.5,0,0,0,3.32-2.148V1.836a.667.667,0,0,0,.664.664H35.977a.667.667,0,0,0,.664-.664V-2.148a17.094,17.094,0,0,0-.312-3.281,16.112,16.112,0,0,0-.937-3.105,15.762,15.762,0,0,0-1.562-2.871A16.045,16.045,0,0,0,31.758-13.945Zm-1.8,5.117H27.3v-6.8q.7.391,1.387.859a14.18,14.18,0,0,1,1.27.977ZM15.625-16.875A15.25,15.25,0,0,1,19.98-17.5a15.654,15.654,0,0,1,4.395.625q.391.156.8.293a8.622,8.622,0,0,1,.84.332.035.035,0,0,0-.039.039v7.383H13.984v-7.383a.035.035,0,0,0-.039-.039,8.622,8.622,0,0,1,.84-.332Q15.2-16.719,15.625-16.875ZM9.961-8.828v-4.961q.625-.508,1.289-.977a12.657,12.657,0,0,1,1.406-.859v6.8ZM4.648-2.148A15.3,15.3,0,0,1,5.684-7.715,15.242,15.242,0,0,1,8.633-12.5V1.172H4.648Zm5.313,3.32V-7.5h20V1.172Zm25.352,0H31.328V-12.5a15.243,15.243,0,0,1,2.949,4.785,15.3,15.3,0,0,1,1.035,5.566Z" transform="translate(-3.32 37.5)" fill="#14213d"></path></svg>