<svg xmlns="http://www.w3.org/2000/svg" width="40.009" height="32.031" viewBox="0 0 40.009 32.031"><path id="Контур_167" data-name="Контур 167" d="M36.641-10.625a16.415,16.415,0,0,0-.977-5.2,16.281,16.281,0,0,0-2.48-4.531,17.6,17.6,0,0,0-3.73-3.555,17.443,17.443,0,0,0-4.766-2.266v-2.656a4.66,4.66,0,0,0-1.406-3.32A4.475,4.475,0,0,0,20-33.516a4.475,4.475,0,0,0-3.281,1.367,4.66,4.66,0,0,0-1.406,3.32v2.656a17.443,17.443,0,0,0-4.766,2.266,17.6,17.6,0,0,0-3.73,3.555,16.28,16.28,0,0,0-2.48,4.531,16.415,16.415,0,0,0-.977,5.2A4.475,4.475,0,0,0,.566-8.379,4.478,4.478,0,0,0,.2-4.844a4.529,4.529,0,0,0,1.68,2.422,4.514,4.514,0,0,0,2.773.938h30.7a4.475,4.475,0,0,0,3.281-1.367A4.52,4.52,0,0,0,40-6.172a4.488,4.488,0,0,0-.937-2.793A4.567,4.567,0,0,0,36.641-10.625ZM16.68-28.828a3.242,3.242,0,0,1,.977-2.383A3.2,3.2,0,0,1,20-32.187a3.2,3.2,0,0,1,2.344.977,3.242,3.242,0,0,1,.977,2.383v12.656H16.68Zm-1.367,4.063v9.258a.639.639,0,0,0,.2.469.687.687,0,0,0,.508.2h7.969a.687.687,0,0,0,.508-.2.639.639,0,0,0,.2-.469v-9.258a15.388,15.388,0,0,1,4.18,2.109,15.338,15.338,0,0,1,3.3,3.184,15.378,15.378,0,0,1,2.207,4.043,15.127,15.127,0,0,1,.938,4.609H4.688a15.127,15.127,0,0,1,.938-4.609,14.276,14.276,0,0,1,2.188-4.043,15.741,15.741,0,0,1,3.32-3.184A15.388,15.388,0,0,1,15.313-24.766ZM35.352-2.812H4.648A3.2,3.2,0,0,1,2.3-3.789a3.242,3.242,0,0,1-.977-2.383A3.2,3.2,0,0,1,2.3-8.516a3.2,3.2,0,0,1,2.344-.977h30.7a3.2,3.2,0,0,1,2.344.977,3.2,3.2,0,0,1,.977,2.344A3.242,3.242,0,0,1,37.7-3.789,3.2,3.2,0,0,1,35.352-2.812ZM26.328-21.094a12.428,12.428,0,0,1,3.965,3.574,12.629,12.629,0,0,1,2.129,4.863.57.57,0,0,0,.215.371.71.71,0,0,0,.449.137H33.2a.6.6,0,0,0,.43-.273.585.585,0,0,0,.078-.508,13.525,13.525,0,0,0-2.344-5.391,14.119,14.119,0,0,0-4.375-3.945.752.752,0,0,0-.508-.059.529.529,0,0,0-.391.332.55.55,0,0,0-.078.488A.747.747,0,0,0,26.328-21.094ZM20-30.859a1.918,1.918,0,0,0-1.406.586,1.964,1.964,0,0,0-.586,1.445,1.918,1.918,0,0,0,.586,1.406A1.918,1.918,0,0,0,20-26.836a1.918,1.918,0,0,0,1.406-.586,1.918,1.918,0,0,0,.586-1.406,1.983,1.983,0,0,0-.586-1.426A1.888,1.888,0,0,0,20-30.859Zm0,2.7a.639.639,0,0,1-.469-.2.639.639,0,0,1-.2-.469.639.639,0,0,1,.2-.469.639.639,0,0,1,.469-.2.639.639,0,0,1,.469.2.639.639,0,0,1,.2.469.639.639,0,0,1-.2.469A.639.639,0,0,1,20-28.164Z" transform="translate(0.009 33.516)" fill="#14213d"></path></svg>