<svg xmlns="http://www.w3.org/2000/svg" width="33.955" height="31.646" viewBox="0 0 33.955 31.646"><g transform="translate(8128.092 3423.926)"><path d="M26.488,17.77H10.6V1.777A1.772,1.772,0,0,0,8.829,0H1.766A1.772,1.772,0,0,0,0,1.777V26.655a1.772,1.772,0,0,0,1.766,1.777H26.488a1.772,1.772,0,0,0,1.766-1.777V19.547A1.772,1.772,0,0,0,26.488,17.77ZM1.766,1.777H8.829V5.331H5.739a.443.443,0,0,0-.441.444v.888a.443.443,0,0,0,.441.444h3.09V9.773H5.739a.443.443,0,0,0-.441.444v.888a.443.443,0,0,0,.441.444h3.09v2.665H5.739a.443.443,0,0,0-.441.444v.888a.443.443,0,0,0,.441.444h3.09v2.3L1.766,25.4ZM26.488,26.655H3.014l7.064-7.108h2.284v3.11a.443.443,0,0,0,.441.444h.883a.443.443,0,0,0,.441-.444v-3.11h2.649v3.11a.443.443,0,0,0,.441.444H18.1a.443.443,0,0,0,.441-.444v-3.11h2.649v3.11a.443.443,0,0,0,.441.444h.883a.443.443,0,0,0,.441-.444v-3.11h3.532Z" transform="translate(-8094.137 -3395.494) rotate(180)" fill="#cecece" opacity="0.93"/><path d="M25.219,14.906h-13v-13a2.216,2.216,0,0,0-2-2h-8a2.216,2.216,0,0,0-2,2v23c0,.962,1.038,3,2,3h23c.962,0,3-2.038,3-3v-7C28.219,16.945,26.18,14.906,25.219,14.906Zm-23-12h8v2h-5c-.241,0,0-.241,0,0v1c0,.241-.241,0,0,0h5v4h-5c-.241,0,0-.241,0,0v1c0,.241-.241,0,0,0h5v3h-5c-.241,0,0-.241,0,0v1c0,.241-.241,0,0,0h5v2l-8,7Zm23,22h-22l8-7h1v4c0,.241-.241,0,0,0h1c.241,0,0,.241,0,0v-4h3v4c0,.241-.241,0,0,0h2c.241,0,0,.241,0,0v-4h3v4c0,.241-.241,0,0,0h1c.241,0,0,.241,0,0v-4h3Z" transform="translate(-8128.311 -3420.186)" fill="#fca311"/></g></svg>