<svg xmlns="http://www.w3.org/2000/svg" width="28" height="28" viewBox="0 0 28 28"><path d="M25.219,14.906h-13v-13a2.216,2.216,0,0,0-2-2h-8a2.216,2.216,0,0,0-2,2v23c0,.962,1.038,3,2,3h23c.962,0,3-2.038,3-3v-7C28.219,16.945,26.18,14.906,25.219,14.906Zm-23-12h8v2h-5c-.241,0,0-.241,0,0v1c0,.241-.241,0,0,0h5v4h-5c-.241,0,0-.241,0,0v1c0,.241-.241,0,0,0h5v3h-5c-.241,0,0-.241,0,0v1c0,.241-.241,0,0,0h5v2l-8,7Zm23,22h-22l8-7h1v4c0,.241-.241,0,0,0h1c.241,0,0,.241,0,0v-4h3v4c0,.241-.241,0,0,0h2c.241,0,0,.241,0,0v-4h3v4c0,.241-.241,0,0,0h1c.241,0,0,.241,0,0v-4h3Z" transform="translate(-0.219 0.094)" fill="#fca311"/></svg>