<svg xmlns="http://www.w3.org/2000/svg" width="28.254" height="28.432" viewBox="0 0 28.254 28.432"><path d="M26.488,17.77H10.6V1.777A1.772,1.772,0,0,0,8.829,0H1.766A1.772,1.772,0,0,0,0,1.777V26.655a1.772,1.772,0,0,0,1.766,1.777H26.488a1.772,1.772,0,0,0,1.766-1.777V19.547A1.772,1.772,0,0,0,26.488,17.77ZM1.766,1.777H8.829V5.331H5.739a.443.443,0,0,0-.441.444v.888a.443.443,0,0,0,.441.444h3.09V9.773H5.739a.443.443,0,0,0-.441.444v.888a.443.443,0,0,0,.441.444h3.09v2.665H5.739a.443.443,0,0,0-.441.444v.888a.443.443,0,0,0,.441.444h3.09v2.3L1.766,25.4ZM26.488,26.655H3.014l7.064-7.108h2.284v3.11a.443.443,0,0,0,.441.444h.883a.443.443,0,0,0,.441-.444v-3.11h2.649v3.11a.443.443,0,0,0,.441.444H18.1a.443.443,0,0,0,.441-.444v-3.11h2.649v3.11a.443.443,0,0,0,.441.444h.883a.443.443,0,0,0,.441-.444v-3.11h3.532Z" transform="translate(28.254 28.432) rotate(180)" fill="#cecece" opacity="0.93"/></svg>