<svg xmlns="http://www.w3.org/2000/svg" width="50" height="40" viewBox="0 0 50 40"><path d="M47.4-21.259,27.244-29.548a5.8,5.8,0,0,0-4.487,0L2.6-21.259A4.843,4.843,0,0,0,0-16.665,4.843,4.843,0,0,0,2.6-12.07l1.769.727a10.21,10.21,0,0,0-.445,1.7A3.517,3.517,0,0,0,2.5-6.665,3.655,3.655,0,0,0,3.583-3.994L1.588,7.972C1.415,9.013,2.009,10,2.809,10H7.192c.8,0,1.394-.988,1.22-2.028l-2-11.966A3.658,3.658,0,0,0,7.5-6.665,3.672,3.672,0,0,0,6.451-9.307a5.706,5.706,0,0,1,.379-1.024l4.287,1.763L10,3.334C10,7.015,16.716,10,25,10S40,7.016,40,3.334l-1.116-11.9,8.516-3.5A4.842,4.842,0,0,0,50-16.666,4.841,4.841,0,0,0,47.4-21.259ZM36.128,2.341C31.464,5.9,18.48,5.86,13.873,2.341l.883-9.413,8,3.291a5.794,5.794,0,0,0,4.488,0l8-3.291ZM26.14-8.56a2.973,2.973,0,0,1-2.28,0L12.08-13.406l13.149-3.287a1.7,1.7,0,0,0,1-1.945c-.127-.908-.788-1.5-1.458-1.329L8.849-15.989a5.21,5.21,0,0,0-1.462.653L4.156-16.667l19.7-8.1a2.973,2.973,0,0,1,2.28,0l19.7,8.106Z" transform="translate(0 30)" fill="#707070"/></svg>