<svg xmlns="http://www.w3.org/2000/svg" width="42.023" height="42.014" viewBox="0 0 42.023 42.014"><defs><style>.a{fill:#fca311;}</style></defs><path class="a" d="M21.009-28.781A10.755,10.755,0,0,0,10.238-18.009,10.755,10.755,0,0,0,21.009-7.238,10.755,10.755,0,0,0,31.781-18.009,10.755,10.755,0,0,0,21.009-28.781Zm0,17.775a7.016,7.016,0,0,1-7-7,7.01,7.01,0,0,1,7-7,7.01,7.01,0,0,1,7,7A7.016,7.016,0,0,1,21.009-11.006ZM34.734-29.222a2.513,2.513,0,0,0-2.512-2.512,2.513,2.513,0,0,0-2.512,2.512,2.507,2.507,0,0,0,2.512,2.512A2.507,2.507,0,0,0,34.734-29.222Zm7.134,2.55c-.159-3.366-.928-6.347-3.394-8.8s-5.437-3.225-8.8-3.394c-3.469-.2-13.866-.2-17.334,0-3.356.159-6.337.928-8.8,3.384S.309-30.047.141-26.681c-.2,3.469-.2,13.866,0,17.334C.3-5.981,1.069-3,3.534-.544s5.438,3.225,8.8,3.394c3.469.2,13.866.2,17.334,0,3.366-.159,6.347-.928,8.8-3.394s3.225-5.437,3.394-8.8C42.066-12.816,42.066-23.2,41.869-26.672ZM37.387-5.625a7.09,7.09,0,0,1-3.994,3.994c-2.766,1.1-9.328.844-12.384.844s-9.628.244-12.384-.844A7.09,7.09,0,0,1,4.631-5.625c-1.1-2.766-.844-9.328-.844-12.384s-.244-9.628.844-12.384a7.09,7.09,0,0,1,3.994-3.994c2.766-1.1,9.328-.844,12.384-.844s9.628-.244,12.384.844a7.09,7.09,0,0,1,3.994,3.994c1.1,2.766.844,9.328.844,12.384S38.484-8.381,37.387-5.625Z" transform="translate(0.007 39.016)"/></svg>