<svg xmlns="http://www.w3.org/2000/svg" width="60" height="48" viewBox="0 0 60 48">
  <path id="Path_26" data-name="Path 26" d="M58.5-6H51V-40.5A1.5,1.5,0,0,0,49.5-42h-3A1.5,1.5,0,0,0,45-40.5v39A1.5,1.5,0,0,0,46.5,0h12A1.5,1.5,0,0,0,60-1.5v-3A1.5,1.5,0,0,0,58.5-6ZM39-19.772a6.021,6.021,0,0,0-.488-2.362L31.172-39.272A4.5,4.5,0,0,0,27.028-42H13.5A4.5,4.5,0,0,0,9-37.5V-27H4.5A4.5,4.5,0,0,0,0-22.5V-3A9,9,0,0,0,9,6a9,9,0,0,0,9-9h6a9,9,0,0,0,9,9,9,9,0,0,0,9-9,8.955,8.955,0,0,0-3-6.666ZM9,1.5A4.5,4.5,0,0,1,4.5-3,4.5,4.5,0,0,1,9-7.5,4.5,4.5,0,0,1,13.5-3,4.5,4.5,0,0,1,9,1.5ZM24-18l-9-9v-9H26.044L33-19.772V-18ZM33,1.5A4.5,4.5,0,0,1,28.5-3,4.5,4.5,0,0,1,33-7.5,4.5,4.5,0,0,1,37.5-3,4.5,4.5,0,0,1,33,1.5Z" transform="translate(0 42)" fill="#14213d"/>
</svg>
