<svg xmlns="http://www.w3.org/2000/svg" width="47.25" height="47.25" viewBox="0 0 47.25 47.25"><defs><style>.a{fill:#fca311;}</style></defs><path class="a" d="M47.25-1.687V-38.812a5.064,5.064,0,0,0-5.062-5.062H5.063A5.064,5.064,0,0,0,0-38.812V-1.687A5.064,5.064,0,0,0,5.063,3.375H42.188A5.064,5.064,0,0,0,47.25-1.687ZM5.063,0A1.692,1.692,0,0,1,3.375-1.687V-38.812A1.692,1.692,0,0,1,5.063-40.5H42.188a1.692,1.692,0,0,1,1.688,1.688V-1.687A1.692,1.692,0,0,1,42.188,0ZM15.23-21.146a1.31,1.31,0,0,0-.011,1.8L27.359-7.214a1.267,1.267,0,0,0,1.793,0l.749-.749a1.267,1.267,0,0,0,0-1.793L19.406-20.25l10.5-10.484a1.267,1.267,0,0,0,0-1.793l-.749-.749a1.267,1.267,0,0,0-1.793,0Z" transform="translate(0 43.875)"/></svg>