<svg xmlns="http://www.w3.org/2000/svg" width="37.88" height="40.401" viewBox="0 0 37.88 40.401"><path d="M12.867-16.81a.955.955,0,0,0-1.342-.008L9.734-15.042A.955.955,0,0,0,9.726-13.7L16.891-6.48a.955.955,0,0,0,1.342.008L31.854-19.982a.955.955,0,0,0,.008-1.342l-1.776-1.791a.955.955,0,0,0-1.342-.008L17.586-12.059ZM36.8-28.395,21.65-34.708A4.53,4.53,0,0,0,20.194-35a4.53,4.53,0,0,0-1.456.29L3.586-28.395A3.784,3.784,0,0,0,1.25-24.9c0,15.665,9.036,26.492,17.48,30.012a3.8,3.8,0,0,0,2.912,0C28.405,2.3,39.13-7.434,39.13-24.9A3.789,3.789,0,0,0,36.8-28.395ZM20.19,1.617C12.5-1.587,5.038-11.538,5.038-24.9L20.19-31.212,35.342-24.9C35.342-11.183,27.577-1.46,20.19,1.617Z" transform="translate(-1.25 34.998)" fill="#707070"/></svg>