<svg xmlns="http://www.w3.org/2000/svg" width="44.992" height="39.995" viewBox="0 0 44.992 39.995"><path d="M2.977-15.875a.63.63,0,0,0,.883.086l1.148-.937V-2.859A4.313,4.313,0,0,1,7.5-3.688a4.507,4.507,0,0,1,1.25.211V-19.8L22.1-30.742a.624.624,0,0,1,.789,0L36.242-19.8v2.3h.008V-3.477A4.515,4.515,0,0,1,37.5-3.7a4.313,4.313,0,0,1,2.508.836V-16.734l1.148.937a.63.63,0,0,0,.883-.086l1.586-1.937a.637.637,0,0,0-.1-.875L40-21.578v-7.8A.627.627,0,0,0,39.375-30h-2.5a.627.627,0,0,0-.625.625v4.727L24.484-34.289a3.121,3.121,0,0,0-3.961,0L1.477-18.7a.629.629,0,0,0-.086.883ZM43.867,1.242A9.993,9.993,0,0,1,38.68-.781a1.892,1.892,0,0,0-2.367.008A10.045,10.045,0,0,1,30,1.3,10.3,10.3,0,0,1,23.68-.781a1.892,1.892,0,0,0-2.367.008A10.045,10.045,0,0,1,15,1.3,10.3,10.3,0,0,1,8.68-.781a1.892,1.892,0,0,0-2.367.008A9.638,9.638,0,0,1,1.148,1.242,1.244,1.244,0,0,0,0,2.453V3.742a1.233,1.233,0,0,0,1.3,1.25A14,14,0,0,0,7.5,2.977a15.094,15.094,0,0,0,15,0,15.094,15.094,0,0,0,15,0,14.068,14.068,0,0,0,6.188,2.016,1.233,1.233,0,0,0,1.3-1.25v-1.3A1.214,1.214,0,0,0,43.867,1.242ZM18.75-20a1.254,1.254,0,0,0-1.25,1.25v7.5A1.254,1.254,0,0,0,18.75-10h7.5a1.254,1.254,0,0,0,1.25-1.25v-7.5A1.254,1.254,0,0,0,26.25-20Z" transform="translate(0 34.998)" fill="#707070"/></svg>