<?xml version="1.0" encoding="iso-8859-1"?>
<!-- Generator: Adobe Illustrator 19.0.0, SVG Export Plug-In . SVG Version: 6.00 Build 0)  -->
<svg version="1.1" id="Capa_1" xmlns="http://www.w3.org/2000/svg" xmlns:xlink="http://www.w3.org/1999/xlink" x="0px" y="0px"
	 viewBox="0 0 512.001 512.001" style="enable-background:new 0 0 512.001 512.001;" xml:space="preserve">
<g>
	<g>
		<path d="M10.13,179.8H10c-5.522,0-10,4.477-10,10s4.478,10,10,10h0.13c5.522,0,10-4.477,10-10S15.652,179.8,10.13,179.8z"/>
	</g>
</g>
<g>
	<g>
		<path d="M509.072,248.892L263.108,2.929c-2.86-2.859-7.161-3.716-10.898-2.167c-3.736,1.548-6.173,5.195-6.173,9.239v64
			c0,5.523,4.478,10,10,10c5.522,0,10-4.477,10-10V34.143l221.822,221.82L265.965,477.858V438c0-5.523-4.478-10-10-10
			c-5.522,0-10,4.477-10,10v64c0,4.045,2.437,7.691,6.173,9.239c1.237,0.513,2.537,0.762,3.825,0.762
			c2.602,0,5.16-1.016,7.073-2.929l246.036-246.038c1.875-1.875,2.929-4.419,2.929-7.071
			C512,253.311,510.947,250.767,509.072,248.892z"/>
	</g>
</g>
<g>
	<g>
		<path d="M368.978,248.904L195.052,74.978c-2.86-2.859-7.16-3.715-10.897-2.168c-3.736,1.547-6.173,5.193-6.174,9.238
			l-0.015,97.752H42.659c-5.522,0-10,4.477-10,10s4.478,10,10,10h145.306c5.522,0,9.999-4.476,10-9.999l0.013-83.614
			l149.787,149.788L197.933,405.807l0.003-22.434l75.177-75.177c3.905-3.905,3.905-10.237,0-14.143
			c-3.904-3.904-10.236-3.905-14.143,0l-61.031,61.031l0.005-32.881c0-2.652-1.053-5.196-2.929-7.072
			c-1.875-1.875-4.419-2.929-7.071-2.929H10c-5.522,0-10,4.477-10,10s4.478,10,10,10h167.944l-0.015,97.749
			c-0.001,4.045,2.436,7.692,6.173,9.24c1.237,0.513,2.536,0.762,3.825,0.762c2.602,0,5.16-1.017,7.073-2.929l173.978-173.978
			C372.884,259.141,372.884,252.809,368.978,248.904z"/>
	</g>
</g>
<g>
	<g>
		<path d="M296.19,270.942c-3.915-3.894-10.247-3.878-14.143,0.038l-0.092,0.092c-3.895,3.915-3.878,10.247,0.037,14.142
			c1.951,1.941,4.502,2.91,7.053,2.91c2.567,0,5.135-0.983,7.09-2.948l0.092-0.092C300.122,281.169,300.105,274.837,296.19,270.942z
			"/>
	</g>
</g>
<g>
</g>
<g>
</g>
<g>
</g>
<g>
</g>
<g>
</g>
<g>
</g>
<g>
</g>
<g>
</g>
<g>
</g>
<g>
</g>
<g>
</g>
<g>
</g>
<g>
</g>
<g>
</g>
<g>
</g>
</svg>
