<svg xmlns="http://www.w3.org/2000/svg" width="50" height="27.22" viewBox="0 0 50 27.22">
  <g id="Path_15" data-name="Path 15" transform="translate(1.799 15.477)" fill="none" stroke-linecap="round" stroke-linejoin="round">
    <path d="M45.2-7.477l-4-5a3.7,3.7,0,0,0-3-1h-4c-1.29,0-3,.71-3,2v11H2.2a1.8,1.8,0,0,0-2,2v2a5.928,5.928,0,0,0,5,6,4.873,4.873,0,0,0,5-2c1.341,1.8,4.456,2.656,7,2,1.837-.474,2.395-2.207,3-4,.357-1.079,1.19-2.038,1-3h12a5.445,5.445,0,0,0,0,3,6.066,6.066,0,0,0,4,4c3.849.933,7-2.3,7-6a4.585,4.585,0,0,0,0-1h1a.9.9,0,0,0,1-1v-6A3.7,3.7,0,0,0,45.2-7.477Zm-39,14a3.647,3.647,0,0,1-3-3c0-1.283,1.717-2,3-2a1.81,1.81,0,0,1,2,2C8.2,4.806,7.484,6.523,6.2,6.523Zm9,0c-1.283,0-2-1.717-2-3a1.81,1.81,0,0,1,2-2,1.81,1.81,0,0,1,2,2C17.2,4.806,16.484,6.523,15.2,6.523Zm23,0c-1.283,0-2-1.717-2-3a1.81,1.81,0,0,1,2-2c1.283,0,3,.717,3,2A3.647,3.647,0,0,1,38.2,6.523Zm-3-13v-4h3c.306,0-.219.781,0,1l4,3Z" stroke="none"/>
    <path d="M 34.20130920410156 -13.47699165344238 C 32.91096878051758 -13.47699165344238 31.20130920410156 -12.76727199554443 31.20130920410156 -11.47699165344238 L 31.20130920410156 -0.4769918918609619 L 2.201309204101563 -0.4769918918609619 C 0.9109573364257813 -0.4769918918609619 0.2013092041015625 0.2327382564544678 0.2013092041015625 1.523008346557617 L 0.2013092041015625 3.523008346557617 C 0.2013092041015625 6.497307777404785 2.256198883056641 9.129318237304688 5.201309204101563 9.523008346557617 C 5.543899536132813 9.568756103515625 5.870429992675781 9.591557502746582 6.182098388671875 9.591557502746582 C 7.906463623046875 9.591557502746582 9.176437377929688 8.893661499023438 10.20130920410156 7.523008346557617 C 11.23862838745117 8.915471076965332 13.33652114868164 9.742770195007324 15.41078567504883 9.742770195007324 C 16.01882171630859 9.742770195007324 16.62458419799805 9.671735763549805 17.20130920410156 9.523008346557617 C 19.03840827941895 9.049158096313477 19.59624862670898 7.316388130187988 20.20130920410156 5.523008346557617 C 20.55846977233887 4.444097995758057 21.39081954956055 3.485298156738281 21.20130920410156 2.523008346557617 L 33.20130920410156 2.523008346557617 C 33.00445938110352 3.485298156738281 32.83680725097656 4.444097995758057 33.20130920410156 5.523008346557617 C 33.81369781494141 7.352838516235352 35.32782745361328 9.071008682250977 37.20130920410156 9.523008346557617 C 37.65567398071289 9.633152961730957 38.10074996948242 9.685227394104004 38.53162002563477 9.685227394104004 C 41.75088119506836 9.685227394104004 44.20130920410156 6.782760620117188 44.20130920410156 3.523008346557617 C 44.20130920410156 3.122058391571045 44.27420043945313 2.902098178863525 44.20130920410156 2.523008346557617 L 45.20130920410156 2.523008346557617 C 45.84283065795898 2.523008346557617 46.20130920410156 2.164578437805176 46.20130920410156 1.523008346557617 L 46.20130920410156 -4.476991653442383 C 46.20130920410156 -5.723551750183105 46.07609939575195 -6.602191925048828 45.20130920410156 -7.476991653442383 L 41.20130920410156 -12.47699165344238 C 40.32650756835938 -13.35179138183594 39.44060897827148 -13.47699165344238 38.20130920410156 -13.47699165344238 L 34.20130920410156 -13.47699165344238 M 42.20130920410156 -6.476991653442383 L 35.20130920410156 -6.476991653442383 L 35.20130920410156 -10.47699165344238 L 38.20130920410156 -10.47699165344238 C 38.50749969482422 -10.47699165344238 37.98260879516602 -9.69569206237793 38.20130920410156 -9.476991653442383 L 42.20130920410156 -6.476991653442383 M 6.201309204101563 6.523008346557617 C 4.918300628662109 6.523008346557617 3.201309204101563 4.806018352508545 3.201309204101563 3.523008346557617 C 3.201309204101563 2.239998340606689 4.918300628662109 1.523008346557617 6.201309204101563 1.523008346557617 C 7.484317779541016 1.523008346557617 8.201309204101563 2.239998340606689 8.201309204101563 3.523008346557617 C 8.201309204101563 4.806018352508545 7.484317779541016 6.523008346557617 6.201309204101563 6.523008346557617 M 15.20130920410156 6.523008346557617 C 13.91830062866211 6.523008346557617 13.20130920410156 4.806018352508545 13.20130920410156 3.523008346557617 C 13.20130920410156 2.239998340606689 13.91830062866211 1.523008346557617 15.20130920410156 1.523008346557617 C 16.48431968688965 1.523008346557617 17.20130920410156 2.239998340606689 17.20130920410156 3.523008346557617 C 17.20130920410156 4.806018352508545 16.48431968688965 6.523008346557617 15.20130920410156 6.523008346557617 M 38.20130920410156 6.523008346557617 C 36.91830062866211 6.523008346557617 36.20130920410156 4.806018352508545 36.20130920410156 3.523008346557617 C 36.20130920410156 2.239998340606689 36.91830062866211 1.523008346557617 38.20130920410156 1.523008346557617 C 39.48431777954102 1.523008346557617 41.20130920410156 2.239998340606689 41.20130920410156 3.523008346557617 C 41.20130920410156 4.806018352508545 39.48431777954102 6.523008346557617 38.20130920410156 6.523008346557617 M 34.20130920410156 -15.47699165344238 L 38.20130920410156 -15.47699165344238 C 39.56975936889648 -15.47699165344238 41.15227890014648 -15.35445213317871 42.61552047729492 -13.89120197296143 C 42.66769790649414 -13.83903217315674 42.71694946289063 -13.78400135040283 42.7630500793457 -13.7263822555542 L 46.70063781738281 -8.804394721984863 C 48.08367538452148 -7.365500450134277 48.20130920410156 -5.818463325500488 48.20130920410156 -4.476991653442383 L 48.20130920410156 1.523008346557617 C 48.20130920410156 2.922236919403076 47.38378524780273 4.012661933898926 46.15828323364258 4.38482666015625 C 45.97994232177734 6.163642883300781 45.25179290771484 7.834344863891602 44.06338882446289 9.160987854003906 C 42.60522842407227 10.78876781463623 40.64067077636719 11.68522834777832 38.53162002563477 11.68522834777832 C 37.93438720703125 11.68522834777832 37.32827758789063 11.61170864105225 36.73014068603516 11.46671867370605 C 34.32140731811523 10.88557910919189 32.19224548339844 8.803972244262695 31.3065185546875 6.163147926330566 L 31.3065185546875 6.163147926330566 C 31.11213684082031 5.587774276733398 31.02200698852539 5.036922454833984 30.99534225463867 4.523008346557617 L 22.85063934326172 4.523008346557617 C 22.72640800476074 4.823321342468262 22.58845710754395 5.098420143127441 22.46459007263184 5.345428466796875 C 22.31666946411133 5.64041805267334 22.17694854736328 5.919037818908691 22.09997940063477 6.151537895202637 C 22.09877967834473 6.155158042907715 22.09757995605469 6.158768653869629 22.09635925292969 6.162367820739746 L 22.06842994689941 6.245207786560059 C 21.74168968200684 7.21431827545166 21.4038200378418 8.216427803039551 20.83333015441895 9.119308471679688 C 20.06576919555664 10.33406829833984 19.01184844970703 11.12146854400635 17.70082855224609 11.45962810516357 C 16.97226905822754 11.64750862121582 16.20181846618652 11.74276828765869 15.41078948974609 11.74276828765869 C 14.112548828125 11.74276828765869 12.81121063232422 11.48626804351807 11.6474609375 11.00100803375244 C 11.15412139892578 10.79529285430908 10.6942253112793 10.55158233642578 10.27441787719727 10.27484607696533 C 9.110553741455078 11.14988422393799 7.741024017333984 11.5915584564209 6.182098388671875 11.5915584564209 C 5.783687591552734 11.5915584564209 5.364639282226563 11.56257820129395 4.936580657958984 11.50540828704834 C 3.024150848388672 11.24976825714111 1.288219451904297 10.27348804473877 0.048309326171875 8.756388664245605 C -1.142749786376953 7.299077987670898 -1.798690795898438 5.440487861633301 -1.798690795898438 3.523008346557617 L -1.798690795898438 1.523008346557617 C -1.798690795898438 -0.8695118427276611 -0.1912117004394531 -2.476991653442383 2.201309204101563 -2.476991653442383 L 29.20130920410156 -2.476991653442383 L 29.20130920410156 -11.47699165344238 C 29.20130920410156 -12.78356170654297 29.93709945678711 -13.95626163482666 31.22002792358398 -14.69439220428467 C 32.08445739746094 -15.19174194335938 33.17108917236328 -15.47699165344238 34.20130920410156 -15.47699165344238 Z M 6.005199432373047 4.399141311645508 C 6.104438781738281 4.184075832366943 6.201309204101563 3.85811710357666 6.201309204101563 3.523008346557617 C 5.866199493408203 3.523008346557617 5.540241241455078 3.619879245758057 5.325176239013672 3.719119071960449 C 5.486770629882813 3.959809303283691 5.764507293701172 4.237548351287842 6.005199432373047 4.399141311645508 Z M 39.07744216918945 3.719119071960449 C 38.86237716674805 3.619879245758057 38.53641891479492 3.523008346557617 38.20130920410156 3.523008346557617 C 38.20130920410156 3.85811710357666 38.29817962646484 4.184075832366943 38.39741897583008 4.399141311645508 C 38.63811111450195 4.237548351287842 38.91584777832031 3.959809303283691 39.07744216918945 3.719119071960449 Z" stroke="none" fill="#0d1e70"/>
  </g>
</svg>
