<svg xmlns="http://www.w3.org/2000/svg" width="42" height="48" viewBox="0 0 42 48">
  <path id="izg" d="M21-16.5a7.835,7.835,0,0,1-7.348-6h-4.5A11.963,11.963,0,0,0,21-12,11.96,11.96,0,0,0,32.85-22.5h-4.5A7.834,7.834,0,0,1,21-16.5ZM29.4-9C26.707-9,25.42-7.5,21-7.5S15.293-9,12.6-9h0A12.6,12.6,0,0,0,0,3.6,2.4,2.4,0,0,0,2.4,6H39.6A2.4,2.4,0,0,0,42,3.6,12.6,12.6,0,0,0,29.4-9ZM4.776,1.5a8.567,8.567,0,0,1,7.828-6C13.957-4.5,16.192-3,21-3c4.825,0,7.041-1.5,8.4-1.5a8.564,8.564,0,0,1,7.824,6Zm3.474-27h25.5a.75.75,0,0,0,.75-.75v-3a.75.75,0,0,0-.75-.75H33a10.411,10.411,0,0,0-6.449-9.6L24-34.5v-6A1.5,1.5,0,0,0,22.5-42h-3A1.5,1.5,0,0,0,18-40.5v6l-2.551-5.1A10.411,10.411,0,0,0,9-30H8.25a.75.75,0,0,0-.75.75v3A.75.75,0,0,0,8.25-25.5Z" transform="translate(0 42)" fill="#14213d"/>
</svg>
