<svg xmlns="http://www.w3.org/2000/svg" width="48" height="48.001" viewBox="0 0 48 48.001">
  <path id="sostavim" d="M46.207-8.758,38.737-12l7.47-3.242A2.252,2.252,0,0,0,47.376-18.2a2.256,2.256,0,0,0-2.962-1.169L24.05-10.49,6.742-18l15.984-6.936a2.252,2.252,0,0,0,1.169-2.959,2.254,2.254,0,0,0-2.962-1.169L1.8-20.76A3,3,0,0,0,0-18a3,3,0,0,0,1.793,2.758L9.264-12,1.8-8.76A3,3,0,0,0,0-6,3,3,0,0,0,1.793-3.24L22.256,5.637A5.19,5.19,0,0,0,24,6a4.418,4.418,0,0,0,1.743-.362L46.2-3.238A3,3,0,0,0,48-6,3,3,0,0,0,46.207-8.758ZM24.05,1.51,6.742-6l8.177-3.547,7.339,3.184A4.356,4.356,0,0,0,24-6a4.382,4.382,0,0,0,1.743-.36l7.341-3.186L41.267-6ZM46.5-33.75H39.75V-40.5a1.5,1.5,0,0,0-1.5-1.5h-1.5a1.5,1.5,0,0,0-1.5,1.5v6.75H28.5a1.5,1.5,0,0,0-1.5,1.5v1.5a1.5,1.5,0,0,0,1.5,1.5h6.75v6.75a1.5,1.5,0,0,0,1.5,1.5h1.5a1.5,1.5,0,0,0,1.5-1.5v-6.75H46.5a1.5,1.5,0,0,0,1.5-1.5v-1.5A1.5,1.5,0,0,0,46.5-33.75Z" transform="translate(0 42)" fill="#14213d"/>
</svg>
